# xmcd
#
# Track frame offsets: 
#        225
#        13122
#        25295
#        40215
#        47890
#        57335
#        69277
#        80980
#        96377
#        106275
#        119157
#        132645
#
# Disc length: 1954 seconds
#
# Revision: 0
# Processed by: cddbd v1.5.2PL0 Copyright (c) Steve Scherf et al.
# Submitted via: ExactAudioCopyFreeDBPlugin 1.0
#
DISCID=b4079f0c
DTITLE=Various Artist - Grandes Maestros del Blues Vol 1
DYEAR=1996
DGENRE=Blues
TTITLE0=Mudy Waters - I'm Your Hoochie Coochie Man
TTITLE1=Elmore James - Coming Home
TTITLE2=The Dells - Love Is Blue - I can Sing a Rainbow
TTITLE3=How Many More Years - Howlin' Wolf
TTITLE4=Jimi Hendrix - Go-Go Place
TTITLE5=Koko Taylor - I'm a Little Mixed Up
TTITLE6=Sonny Boy Williamson - Don't Start Me Talking
TTITLE7=Etta James - Jump Into Love
TTITLE8=Buddy Guy - 100 $ Bill (money)
TTITLE9=Lowell Fulson - Rolling Blues
TTITLE10=John Lee Hooker - One Bourbon, One Scotch, One Beer
TTITLE11=Big Bill Broonzy and Washboard Sam - By Myself
EXTD=
EXTT0=
EXTT1=
EXTT2=
EXTT3=
EXTT4=
EXTT5=
EXTT6=
EXTT7=
EXTT8=
EXTT9=
EXTT10=
EXTT11=
PLAYORDER=
